<?xml version="1.0" encoding="UTF-8" standalone="no"?><svg xmlns="http://www.w3.org/2000/svg" xmlns:xlink="http://www.w3.org/1999/xlink" fill="#000000" height="387.5" preserveAspectRatio="xMidYMid meet" version="1" viewBox="11.6 58.2 465.8 387.5" width="465.8" zoomAndPan="magnify"><g id="change1_1"><path d="M141.54,65.48c-1.15-1.12-2.89-1.12-4.04,0c-1.12,1.15-1.12,2.89,0,4.04c0.97,0.94,2.37,1.09,3.47,0.43l32,32 v19.71l30.1,30.1h76.18l16.97-16.97h175.54c0.32,1.23,1.44,2.15,2.77,2.15c1.57,0,2.86-1.28,2.86-2.86c0-1.57-1.28-2.86-2.86-2.86 c-1.33,0-2.45,0.92-2.77,2.15H295.64l-16.97,16.97h-75.01l-29.27-29.27v-19.71l-32.42-32.42C142.63,67.85,142.49,66.45,141.54,65.48 M20.13,98.11c-1.57,0-2.86,1.28-2.86,2.86c0,1.57,1.28,2.86,2.86,2.86c1.33,0,2.45-0.92,2.77-2.15h89.55l17.55,17.55v38.79 l61.58,61.58h82.85l17.67,17.67h92.94c0.32,1.23,1.44,2.15,2.77,2.15c1.57,0,2.86-1.28,2.86-2.86c0-1.57-1.28-2.86-2.86-2.86 c-1.33,0-2.45,0.92-2.77,2.15h-92.36l-17.67-17.67h-82.85l-60.75-60.75v-38.79l-18.38-18.38H22.9 C22.58,99.02,21.46,98.11,20.13,98.11z M172.37,141.03c-1.15-1.12-2.89-1.12-4.04,0c-1.12,1.15-1.12,2.89,0,4.04 c0.97,0.94,2.37,1.09,3.47,0.43l30.14,30.14h85.83l18.6-18.6h61.67c0.32,1.23,1.44,2.15,2.77,2.15c1.57,0,2.86-1.28,2.86-2.86 c0-1.57-1.28-2.86-2.86-2.86c-1.33,0-2.45,0.92-2.77,2.15h-62.25l-18.6,18.6h-84.65l-29.72-29.72 C173.46,143.4,173.31,142.01,172.37,141.03z M214.94,129.06c-1.57,0-2.86,1.28-2.86,2.86c0,1.57,1.28,2.86,2.86,2.86 c1.33,0,2.45-0.92,2.77-2.15h50.93l23.34-23.34h82.73l12.73-12.73h59.88c0.32,1.23,1.44,2.15,2.77,2.15c1.57,0,2.86-1.28,2.86-2.86 c0-1.57-1.28-2.86-2.86-2.86c-1.33,0-2.45,0.92-2.77,2.15h-60.47l-12.73,12.73h-82.73l-23.34,23.34h-50.34 C217.39,129.98,216.27,129.06,214.94,129.06z M183.59,61.48c-3.35-3.31-8.68-3.31-12.03,0c-3.31,3.35-3.31,8.68,0,12.03 c2.83,2.8,7.06,3.23,10.33,1.31l31.73,31.73h37.11l20.65-20.65h35.71c0.95,3.66,4.29,6.38,8.23,6.38c4.68,0,8.5-3.82,8.5-8.5 c0-4.68-3.82-8.5-8.5-8.5c-3.95,0-7.28,2.72-8.23,6.38h-37.47l-20.65,20.65h-33.58L184.9,71.81 C186.82,68.55,186.38,64.31,183.59,61.48z M20.13,106.28c-4.68,0-8.5,3.82-8.5,8.5c0,4.68,3.82,8.5,8.5,8.5 c3.95,0,7.28-2.72,8.23-6.38h67.56l11.3,11.3v35.07l75.57,75.57v50.27l37.05,37.05c-1.92,3.27-1.49,7.5,1.31,10.33 c3.35,3.31,8.68,3.31,12.03,0c3.31-3.35,3.31-8.68,0-12.03c-2.83-2.8-7.06-3.23-10.33-1.31l-35.81-35.81v-50.27l-75.57-75.57v-35.07 l-13.79-13.79H28.36C27.41,109,24.08,106.28,20.13,106.28z M331.9,273.03c1.57,0,2.86-1.28,2.86-2.86c0-1.57-1.28-2.86-2.86-2.86 c-1.33,0-2.45,0.92-2.77,2.15h-37.12l-22.74-22.74h-66.9v30.34l26.35,26.35h31.54c0.32,1.23,1.44,2.15,2.77,2.15 c1.57,0,2.86-1.28,2.86-2.86c0-1.57-1.28-2.86-2.86-2.86c-1.33,0-2.45,0.92-2.77,2.15h-30.95l-25.52-25.52v-28.33h64.89l22.75,22.74 h37.7C329.45,272.11,330.57,273.03,331.9,273.03z M20.13,130.63c-1.57,0-2.86,1.28-2.86,2.86c0,1.57,1.28,2.86,2.86,2.86 c1.33,0,2.45-0.92,2.77-2.15h57.88l7.02,7.02v26.83L56.66,199.2v89.76l37.15,37.15v41.84c-1.23,0.32-2.15,1.44-2.15,2.77 c0,1.57,1.28,2.86,2.86,2.86c1.57,0,2.86-1.28,2.86-2.86c0-1.33-0.92-2.45-2.15-2.77v-42.43l-37.15-37.15v-88.59l31.14-31.14v-28.01 l-7.86-7.86H22.9C22.58,131.55,21.46,130.63,20.13,130.63z M67.95,165.43c3.31-3.35,3.31-8.68,0-12.03c-3.35-3.31-8.68-3.31-12.03,0 c-2.8,2.83-3.23,7.06-1.31,10.33l-15.85,15.85v123.99L63,327.81v63.8c-3.66,0.95-6.38,4.29-6.38,8.23c0,4.68,3.82,8.5,8.5,8.5 c4.68,0,8.5-3.82,8.5-8.5c0-3.95-2.72-7.28-6.38-8.23v-65.56l-24.23-24.23V181.35l14.6-14.6C60.89,168.67,65.13,168.23,67.95,165.43 z M43.54,326.71c0-1.57-1.28-2.86-2.86-2.86c-1.57,0-2.86,1.28-2.86,2.86c0,1.33,0.92,2.45,2.15,2.77v48.17l-10.1,10.1v52.26 c-1.23,0.32-2.15,1.44-2.15,2.77c0,1.57,1.28,2.86,2.86,2.86c1.57,0,2.86-1.28,2.86-2.86c0-1.33-0.92-2.45-2.15-2.77v-51.68 l10.1-10.1v-48.75C42.63,329.16,43.54,328.04,43.54,326.71z M103.08,195.02c-1.15-1.12-2.89-1.12-4.04,0 c-1.12,1.15-1.12,2.89,0,4.04c0.97,0.94,2.37,1.09,3.47,0.43l49.28,49.28v48.89l59.08,59.08h108.49c0.32,1.23,1.44,2.15,2.77,2.15 c1.57,0,2.86-1.28,2.86-2.86c0-1.57-1.28-2.86-2.86-2.86c-1.33,0-2.45,0.92-2.77,2.15h-107.9l-58.25-58.25v-48.89l-49.7-49.7 C104.17,197.39,104.02,196,103.08,195.02z M106.76,182.72c1.12-1.15,1.12-2.89,0-4.04c-1.15-1.12-2.89-1.12-4.04,0 c-0.94,0.97-1.09,2.37-0.43,3.47l-26.97,26.97v67.92l39.73,39.73v91.56c-1.23,0.32-2.15,1.44-2.15,2.77c0,1.57,1.28,2.86,2.86,2.86 c1.57,0,2.86-1.28,2.86-2.86c0-1.33-0.92-2.45-2.15-2.77v-92.14l-39.73-39.73v-66.75l26.56-26.56 C104.39,183.81,105.79,183.67,106.76,182.72z M120.47,232.97c-0.03-6.28-5.06-11.3-11.34-11.34c-6.28,0.03-11.3,5.06-11.34,11.34 c0.03,5.3,3.61,9.71,8.5,10.97v37.82l25.93,25.93v35.47c-4.89,1.27-8.47,5.67-8.5,10.97c0.03,6.28,5.06,11.3,11.34,11.34 c6.28-0.03,11.3-5.06,11.34-11.34c-0.03-5.3-3.61-9.71-8.5-10.97v-37.82l-25.93-25.93v-35.47 C116.86,242.68,120.44,238.27,120.47,232.97z M20.13,80.68c-1.57,0-2.86,1.28-2.86,2.86c0,1.57,1.28,2.86,2.86,2.86 c1.33,0,2.45-0.92,2.77-2.15h100.82l27.43,27.43v41.03l47.07,47.07h109.66c0.32,1.23,1.44,2.15,2.77,2.15 c1.57,0,2.86-1.28,2.86-2.86c0-1.57-1.28-2.86-2.86-2.86c-1.33,0-2.45,0.92-2.77,2.15H198.8l-46.24-46.24v-41.03L124.3,82.83H22.9 C22.58,81.59,21.46,80.68,20.13,80.68z" fill="#00e7ff"/></g></svg>