<?xml version="1.0" encoding="UTF-8" standalone="no"?><svg xmlns="http://www.w3.org/2000/svg" xmlns:xlink="http://www.w3.org/1999/xlink" fill="#000000" height="2317.8" preserveAspectRatio="xMidYMid meet" version="1" viewBox="483.7 341.1 2032.6 2317.8" width="2032.6" zoomAndPan="magnify"><g><g><g id="change1_7"><path d="M632.14 714.36L632.14 723.77 632.14 1215.66 767.84 1351.36 767.84 1974.82 1031.9 2238.88 1031.9 2658.91 1022.53 2658.91 1022.53 2242.77 758.47 1978.7 758.47 1355.24 622.77 1219.54 622.77 723.77 622.77 714.36z" fill="#00e7ff"/></g><g id="change1_19"><path d="M897.53 2658.91L892.84 2658.91 892.84 2271.13 630.62 2008.91 630.62 1493.64 483.69 1346.71 487 1343.39 635.3 1491.69 635.3 2006.97 897.53 2269.19z" fill="#00e7ff"/></g><g id="change1_12"><path d="M1127.25 2658.91L1117.88 2658.91 1117.88 2169.41 901.5 1953.04 901.5 1580.68 910.87 1580.68 910.87 1949.15 1127.25 2165.53z" fill="#00e7ff"/></g><g id="change1_1"><path d="M1234.93 2658.91L1230.24 2658.91 1230.24 2120.77 1019.37 1909.89 1019.37 1081.91 1024.05 1081.91 1024.05 1907.95 1234.93 2118.83z" fill="#00e7ff"/></g><g id="change1_14"><path d="M1369.3 2658.91L1359.93 2658.91 1359.93 2059.39 1200.4 1899.86 1200.4 1380.7 1419.53 1161.57 1419.53 414.44 1428.9 414.44 1428.9 1165.45 1209.77 1384.58 1209.77 1895.98 1369.3 2055.51z" fill="#00e7ff"/></g><g id="change1_2"><path d="M1411.74 1575.75L1411.74 1585.16 1411.74 1781.12 1565.3 1934.7 1565.3 2658.91 1574.68 2658.91 1574.68 2144.1 1574.68 2137.47 1574.68 1932.75 1574.68 1930.82 1565.3 1921.45 1421.11 1777.24 1421.11 1585.16 1421.11 1575.75z" fill="#00e7ff"/></g><g id="change1_10"><path d="M1565.31 1345.05H1574.6799999999998V1932.76H1565.31z" fill="#00e7ff"/></g><g id="change1_13"><path d="M1571.65 2147.13L1568.34 2143.81 1813.37 1898.78 1813.37 1212.97 1936.23 1090.11 1936.23 884.84 1718.93 667.54 1718.93 341.09 1723.62 341.09 1723.62 665.6 1940.91 882.9 1940.91 1092.05 1940.23 1092.74 1818.05 1214.91 1818.05 1900.72 1817.37 1901.41z" fill="#00e7ff"/></g><g id="change1_11"><path d="M2167.11 762.5L2167.11 771.91 2167.11 1380.13 1968.49 1578.74 1968.49 2034.66 1749.6 2253.55 1749.6 2658.91 1758.97 2658.91 1758.97 2257.44 1977.86 2038.53 1977.86 2035.23 1977.86 2028.6 1977.86 1582.63 2176.49 1384.02 2176.49 771.91 2176.49 762.5z" fill="#00e7ff"/></g><g id="change1_17"><path d="M1974.84 2038.25L1971.53 2034.94 2077.88 1928.58 2077.88 1763.08 2078.57 1762.4 2277.53 1563.44 2277.53 1081.91 2282.22 1081.91 2282.22 1565.38 2281.53 1566.07 2082.57 1765.03 2082.57 1930.52 2081.88 1931.21z" fill="#00e7ff"/></g><g id="change1_4"><path d="M1977.87 2658.91L1968.5 2658.91 1968.5 2334.24 2254.1 2048.63 2254.1 1868.47 2463.49 1659.08 2463.49 1433.99 2472.86 1433.99 2472.86 1662.96 2263.47 1872.35 2263.47 2052.52 1977.87 2338.12z" fill="#00e7ff"/></g><g id="change1_5"><path d="M2128.87 2658.91L2124.18 2658.91 2124.18 2379.22 2124.87 2378.53 2438.21 2065.19 2438.21 1932.76 2442.9 1932.76 2442.9 2067.13 2442.21 2067.82 2128.87 2381.16z" fill="#00e7ff"/></g><g id="change1_9"><path d="M627.46,723.98c-29.13,0-52.82-23.7-52.82-52.82c0-29.13,23.7-52.82,52.82-52.82 c29.13,0,52.82,23.7,52.82,52.82C680.28,700.28,656.59,723.98,627.46,723.98z M627.46,627.71c-23.96,0-43.45,19.49-43.45,43.45 c0,23.96,19.49,43.45,43.45,43.45c23.96,0,43.45-19.49,43.45-43.45C670.91,647.2,651.42,627.71,627.46,627.71z" fill="#00e7ff"/></g><g id="change1_16"><circle cx="906.19" cy="1580.68" fill="#00e7ff" r="48.14"/></g><g id="change1_6"><circle cx="1424.21" cy="414.44" fill="#00e7ff" r="48.14"/></g><g id="change1_8"><path d="M2171.8,772.12c-29.13,0-52.82-23.7-52.82-52.82c0-29.13,23.7-52.82,52.82-52.82 c29.13,0,52.82,23.7,52.82,52.82C2224.62,748.42,2200.92,772.12,2171.8,772.12z M2171.8,675.84c-23.96,0-43.45,19.49-43.45,43.45 c0,23.96,19.49,43.45,43.45,43.45c23.96,0,43.45-19.49,43.45-43.45C2215.25,695.34,2195.76,675.84,2171.8,675.84z" fill="#00e7ff"/></g><g id="change1_15"><circle cx="2468.17" cy="1433.99" fill="#00e7ff" r="48.14"/></g><g id="change1_18"><circle cx="1569.99" cy="1345.05" fill="#00e7ff" r="48.14"/></g><g id="change1_3"><path d="M1416.42,1585.37c-29.13,0-52.82-23.7-52.82-52.82c0-29.13,23.7-52.82,52.82-52.82 c29.13,0,52.82,23.7,52.82,52.82C1469.24,1561.67,1445.55,1585.37,1416.42,1585.37z M1416.42,1489.09 c-23.96,0-43.45,19.49-43.45,43.45c0,23.96,19.49,43.45,43.45,43.45c23.96,0,43.45-19.49,43.45-43.45 C1459.87,1508.59,1440.38,1489.09,1416.42,1489.09z" fill="#00e7ff"/></g></g></g></svg>