<?xml version="1.0" encoding="UTF-8" standalone="no"?><svg xmlns="http://www.w3.org/2000/svg" xmlns:xlink="http://www.w3.org/1999/xlink" fill="#000000" height="428.1" preserveAspectRatio="xMidYMid meet" version="1" viewBox="71.8 72.3 428.2 428.1" width="428.2" zoomAndPan="magnify"><g id="change1_1"><path d="M500,495.57c0-0.02-0.01-0.05-0.01-0.07c0-0.02-0.01-0.04-0.01-0.07c0-0.09-0.02-0.17-0.02-0.26 c0-0.05-0.01-0.11-0.01-0.16c-0.01-0.06,0-0.12-0.01-0.19c0-0.01,0-0.01-0.01-0.02c0-0.03-0.01-0.05-0.02-0.08 c-0.01-0.05-0.03-0.1-0.04-0.15c-0.02-0.08-0.04-0.15-0.06-0.23c0-0.01,0-0.01,0-0.02c-0.03-0.1-0.05-0.2-0.08-0.29 c-0.01-0.03-0.03-0.06-0.04-0.1c-0.02-0.06-0.05-0.11-0.08-0.17c-0.02-0.04-0.03-0.09-0.05-0.13c-0.02-0.05-0.06-0.09-0.08-0.14 c-0.05-0.1-0.11-0.2-0.17-0.29c-0.03-0.05-0.07-0.1-0.1-0.16c-0.05-0.07-0.1-0.14-0.16-0.21c-0.07-0.09-0.15-0.18-0.22-0.26 c-0.05-0.05-0.09-0.11-0.15-0.16c-0.05-0.05-0.11-0.1-0.17-0.15c-0.04-0.03-0.07-0.07-0.1-0.1c-0.05-0.05-0.12-0.08-0.17-0.12 c-0.07-0.05-0.13-0.11-0.2-0.15c-0.04-0.03-0.09-0.05-0.14-0.08c-0.11-0.07-0.23-0.13-0.35-0.19c-0.07-0.03-0.13-0.08-0.2-0.11 c-0.05-0.02-0.1-0.04-0.15-0.05c-0.12-0.05-0.24-0.08-0.36-0.12c-0.1-0.03-0.19-0.06-0.29-0.08c-0.03-0.01-0.06-0.02-0.09-0.03 c-0.02,0-0.04,0-0.06-0.01c-0.02,0-0.03-0.01-0.05-0.01c-0.01,0-0.02,0-0.02-0.01V81.14c0.06-0.01,0.12-0.04,0.18-0.05 c0.12-0.03,0.24-0.06,0.36-0.1c0.12-0.04,0.24-0.08,0.36-0.13c0.12-0.05,0.24-0.11,0.36-0.17c0.1-0.05,0.2-0.11,0.3-0.17 c0.12-0.08,0.24-0.16,0.36-0.25c0.08-0.06,0.17-0.13,0.25-0.2c0.11-0.1,0.21-0.2,0.32-0.31c0.08-0.08,0.15-0.16,0.22-0.25 c0.09-0.11,0.17-0.22,0.24-0.34c0.07-0.11,0.13-0.21,0.19-0.33c0.03-0.06,0.08-0.11,0.11-0.18c0.02-0.05,0.03-0.11,0.06-0.16 c0.07-0.16,0.13-0.33,0.18-0.51c0.03-0.09,0.06-0.18,0.08-0.28c0.04-0.18,0.06-0.37,0.08-0.56c0.01-0.09,0.02-0.18,0.02-0.27 c0-0.04,0.01-0.08,0.01-0.12c0-0.12-0.03-0.24-0.04-0.36c-0.01-0.13-0.02-0.27-0.04-0.4c-0.03-0.15-0.07-0.3-0.11-0.45 c-0.04-0.13-0.07-0.26-0.12-0.39c-0.05-0.13-0.11-0.24-0.17-0.36c-0.07-0.14-0.14-0.28-0.23-0.42c-0.06-0.09-0.13-0.18-0.19-0.27 c-0.11-0.14-0.22-0.28-0.34-0.41c-0.07-0.07-0.15-0.14-0.23-0.21c-0.13-0.12-0.26-0.24-0.41-0.34c-0.11-0.08-0.22-0.14-0.34-0.2 c-0.1-0.06-0.2-0.13-0.31-0.19c-0.03-0.01-0.06-0.02-0.09-0.03c-0.15-0.07-0.31-0.11-0.46-0.16c-0.12-0.04-0.24-0.08-0.36-0.11 c-0.15-0.03-0.31-0.05-0.46-0.07c-0.14-0.02-0.28-0.04-0.41-0.04c-0.03,0-0.07-0.01-0.1-0.01c-0.11,0-0.22,0.03-0.33,0.03 c-0.15,0.01-0.29,0.02-0.43,0.04c-0.15,0.03-0.28,0.07-0.42,0.11c-0.14,0.04-0.27,0.08-0.41,0.13c-0.13,0.05-0.25,0.11-0.37,0.17 c-0.14,0.07-0.27,0.14-0.4,0.22c-0.1,0.07-0.2,0.14-0.3,0.22c-0.13,0.1-0.26,0.2-0.38,0.31c-0.09,0.09-0.17,0.18-0.25,0.27 c-0.1,0.12-0.21,0.24-0.3,0.37c-0.08,0.12-0.15,0.24-0.22,0.37c-0.06,0.1-0.13,0.18-0.18,0.29c-0.02,0.03-0.02,0.07-0.04,0.1 c-0.05,0.11-0.08,0.23-0.12,0.34c-0.05,0.14-0.1,0.29-0.14,0.43c-0.03,0.13-0.05,0.26-0.07,0.39c-0.02,0.15-0.04,0.3-0.05,0.45 c0,0.06-0.02,0.12-0.02,0.19c0,0.08,0.02,0.15,0.02,0.23c0.01,0.12,0.02,0.23,0.03,0.35c0.02,0.14,0.04,0.28,0.07,0.42 c0.03,0.11,0.06,0.23,0.09,0.34c0.04,0.13,0.08,0.25,0.13,0.37c0.05,0.12,0.11,0.24,0.17,0.36c0.05,0.1,0.1,0.19,0.16,0.29 c0.08,0.13,0.17,0.26,0.27,0.38c0.06,0.07,0.11,0.14,0.18,0.21c0.11,0.12,0.22,0.23,0.35,0.34c0.07,0.06,0.14,0.13,0.22,0.19 c0.06,0.05,0.11,0.1,0.17,0.14l-49.07,103.43c-0.61-0.17-1.27-0.23-1.93-0.11c-1.44,0.25-2.59,1.18-3.2,2.4L334.36,155 c0-0.02,0-0.04,0-0.07c0.02-0.15,0.01-0.3,0.01-0.46c0-0.11,0.01-0.22,0-0.33c-0.01-0.12-0.03-0.24-0.05-0.36 c-0.02-0.14-0.04-0.28-0.08-0.42c-0.03-0.1-0.07-0.21-0.1-0.31c-0.05-0.14-0.09-0.28-0.15-0.41c-0.02-0.03-0.02-0.07-0.04-0.1 c-0.03-0.07-0.08-0.13-0.12-0.19c-0.08-0.15-0.17-0.3-0.27-0.44c-0.06-0.09-0.13-0.17-0.19-0.25c-0.11-0.13-0.23-0.26-0.35-0.38 c-0.08-0.07-0.15-0.14-0.23-0.21c-0.13-0.11-0.27-0.2-0.42-0.3c-0.09-0.06-0.17-0.12-0.27-0.17c-0.14-0.08-0.3-0.14-0.45-0.21 c-0.1-0.04-0.2-0.09-0.3-0.12c-0.04-0.01-0.07-0.03-0.1-0.04c-0.1-0.03-0.19-0.03-0.29-0.05c-0.16-0.04-0.33-0.07-0.49-0.09 c-0.11-0.01-0.23-0.01-0.34-0.02c-0.18-0.01-0.35-0.01-0.53,0.01c-0.12,0.01-0.24,0.03-0.36,0.05c-0.16,0.03-0.32,0.05-0.48,0.1 c-0.14,0.04-0.27,0.09-0.4,0.15c-0.1,0.04-0.21,0.06-0.31,0.11c-0.03,0.02-0.06,0.04-0.09,0.05c-0.16,0.08-0.31,0.18-0.46,0.28 c-0.09,0.06-0.18,0.11-0.26,0.18c-0.14,0.11-0.26,0.24-0.39,0.36c-0.08,0.08-0.17,0.15-0.24,0.24c-0.09,0.11-0.16,0.23-0.24,0.34 c-0.09,0.12-0.18,0.24-0.25,0.37c-0.06,0.1-0.1,0.21-0.15,0.32c-0.07,0.16-0.14,0.31-0.2,0.47c-0.01,0.03-0.03,0.06-0.04,0.09 c-0.03,0.09-0.03,0.19-0.05,0.28c-0.04,0.16-0.07,0.32-0.09,0.49c-0.01,0.13-0.01,0.26-0.02,0.39c0,0.15-0.01,0.3,0.01,0.46 c0.01,0.16,0.04,0.31,0.07,0.46c0.02,0.13,0.04,0.25,0.08,0.38c0.04,0.16,0.11,0.31,0.17,0.47c0.04,0.09,0.06,0.19,0.1,0.28 c0.02,0.03,0.04,0.06,0.06,0.09c0.05,0.11,0.12,0.2,0.18,0.3c0.08,0.13,0.16,0.26,0.25,0.38c0.08,0.1,0.16,0.19,0.25,0.28 c0.07,0.08,0.13,0.16,0.21,0.23l-70.83,106.79c-1.67-0.73-3.67-0.41-5,1c-1.67,1.79-1.59,4.57,0.19,6.26c1.6,1.49,4,1.59,5.7,0.31 l234.89,221.09c-0.01,0.02-0.02,0.03-0.03,0.05c-0.03,0.04-0.06,0.08-0.08,0.13c-0.04,0.07-0.07,0.15-0.11,0.22 c-0.06,0.11-0.12,0.22-0.16,0.33c-0.02,0.04-0.04,0.07-0.05,0.11L155.6,425.8c0.06-2.11-1.4-4.04-3.54-4.47 c-1-0.2-1.98-0.03-2.83,0.39l-69.27-94.97c1.48-1.53,1.69-3.9,0.4-5.69c-1.46-1.98-4.19-2.4-6.18-0.97 c-1.98,1.46-2.4,4.19-0.97,6.18c1.31,1.77,3.63,2.3,5.54,1.36L148,422.6c-0.57,0.59-0.99,1.33-1.17,2.19 c-0.24,1.19,0.02,2.37,0.65,3.32l-68.05,63.93c-1.69-1.28-4.09-1.19-5.69,0.31c-1.78,1.68-1.86,4.46-0.19,6.26 c1.68,1.78,4.46,1.86,6.26,0.19c1.59-1.51,1.83-3.89,0.66-5.66l68.05-63.94c0.51,0.39,1.1,0.68,1.78,0.82 c2.14,0.44,4.24-0.76,5.01-2.73l335.85,68.17c0,0.01,0,0.02,0,0.03c0,0.02,0,0.05,0,0.07c0,0.01,0,0.02,0,0.02 c0,0.06,0.02,0.13,0.02,0.19c0,0.01,0,0.02,0,0.03c0,0.09,0.01,0.19,0.02,0.28c0.01,0.06,0.01,0.13,0.02,0.19c0,0.02,0,0.04,0,0.06 c0,0.02,0.01,0.04,0.02,0.07c0.02,0.08,0.04,0.16,0.06,0.24c0.02,0.07,0.03,0.14,0.06,0.21c0.02,0.08,0.05,0.15,0.07,0.23 c0.02,0.06,0.04,0.12,0.06,0.17c0.02,0.05,0.05,0.1,0.07,0.15c0.02,0.04,0.02,0.08,0.04,0.11c0.01,0.03,0.04,0.06,0.05,0.09 c0.04,0.07,0.08,0.14,0.12,0.21c0.04,0.07,0.08,0.14,0.12,0.21c0.03,0.05,0.07,0.09,0.1,0.14c0.03,0.05,0.06,0.1,0.09,0.14 c0.05,0.07,0.11,0.12,0.17,0.19c0.06,0.06,0.11,0.13,0.17,0.19c0.03,0.03,0.07,0.06,0.1,0.09c0.04,0.04,0.08,0.08,0.12,0.12 c0.04,0.04,0.09,0.07,0.14,0.11c0.03,0.02,0.06,0.05,0.09,0.07c0.06,0.05,0.12,0.1,0.19,0.15c0.03,0.02,0.06,0.04,0.09,0.06 c0.05,0.04,0.11,0.07,0.16,0.1c0.07,0.04,0.14,0.07,0.21,0.11c0.02,0.01,0.05,0.02,0.07,0.04c0.07,0.03,0.13,0.08,0.2,0.11 c0.03,0.01,0.05,0.03,0.08,0.04c0.06,0.02,0.11,0.04,0.17,0.06c0.09,0.03,0.19,0.06,0.29,0.09c0,0,0.01,0,0.01,0 c0.09,0.03,0.17,0.06,0.26,0.08c0.02,0.01,0.05,0.02,0.07,0.02c0,0,0,0,0,0c0.05,0.01,0.09,0.01,0.14,0.01 c0.12,0.02,0.24,0.03,0.36,0.04c0.1,0.01,0.2,0.03,0.31,0.03c0.03,0,0.05,0.01,0.08,0.01c0,0,0,0,0,0c0.04,0,0.08-0.01,0.13-0.01 c0.12,0,0.25-0.02,0.37-0.04c0.08-0.01,0.17,0,0.25-0.02c0.02,0,0.04-0.01,0.06-0.02c0.02,0,0.05,0,0.07-0.01 c0.04-0.01,0.07-0.02,0.11-0.03c0.12-0.03,0.23-0.07,0.35-0.11c0.11-0.03,0.22-0.06,0.32-0.1c0.01-0.01,0.03-0.01,0.04-0.01 c0.04-0.02,0.08-0.04,0.13-0.06c0.04-0.02,0.07-0.02,0.11-0.04c0.07-0.04,0.13-0.09,0.21-0.13c0.1-0.05,0.2-0.1,0.29-0.16 c0.01-0.01,0.02-0.01,0.03-0.02c0.05-0.03,0.09-0.07,0.13-0.1c0.1-0.07,0.19-0.15,0.28-0.22c0.07-0.06,0.15-0.11,0.22-0.18 c0.01-0.01,0.03-0.02,0.04-0.04c0.04-0.04,0.07-0.08,0.1-0.12c0.09-0.1,0.18-0.2,0.26-0.31c0.05-0.06,0.1-0.11,0.15-0.18 c0.01-0.02,0.03-0.04,0.04-0.06c0.03-0.04,0.04-0.09,0.07-0.13c0.07-0.12,0.14-0.24,0.2-0.36c0.04-0.07,0.08-0.13,0.11-0.21 c0.01-0.02,0.02-0.04,0.03-0.06c0.02-0.04,0.03-0.09,0.04-0.14c0.05-0.12,0.08-0.24,0.12-0.36c0.03-0.09,0.06-0.18,0.08-0.27 c0.01-0.02,0.01-0.04,0.02-0.07c0,0,0,0,0,0c0.01-0.04,0.01-0.09,0.01-0.13c0.02-0.11,0.03-0.22,0.04-0.34 c0.01-0.11,0.03-0.22,0.03-0.34C499.99,495.62,500,495.6,500,495.57C500,495.57,500,495.57,500,495.57z M351.6,281.54 c-0.83-1.19-2.14-1.83-3.49-1.87l-16.75-120.61l159.38,328.29L351.08,287.22C352.59,285.73,352.85,283.34,351.6,281.54z M258.75,268.49c-0.01-1.17-0.46-2.33-1.37-3.2l70.82-106.77c0.1,0.04,0.2,0.07,0.3,0.1c0.08,0.03,0.14,0.07,0.22,0.09 c0.04,0.01,0.07,0.01,0.11,0.02c0.15,0.04,0.3,0.06,0.45,0.09c0.1,0.02,0.2,0.04,0.3,0.05c0.09,0.01,0.18,0.01,0.26,0.01 l16.8,120.99c-0.41,0.13-0.82,0.31-1.19,0.57c-0.79,0.56-1.34,1.33-1.63,2.18L258.75,268.49z M494.38,81.03 c0.06,0.02,0.13,0.02,0.2,0.04c0.08,0.02,0.16,0.05,0.25,0.07v405.64l-50.57-294.53c1.99-0.7,3.25-2.77,2.88-4.92 c-0.21-1.21-0.89-2.21-1.82-2.87L494.38,81.03z M333.94,156.44l104.46,31.12c-0.05,0.41-0.06,0.84,0.01,1.27 c0.37,2.16,2.24,3.67,4.36,3.68l51.17,297.99L332.55,158.07c0.06-0.05,0.11-0.1,0.17-0.15c0.12-0.1,0.25-0.2,0.36-0.31 c0.08-0.08,0.16-0.17,0.23-0.26c0.09-0.1,0.18-0.2,0.26-0.31c0.08-0.12,0.15-0.25,0.23-0.37 C333.85,156.58,333.9,156.51,333.94,156.44z M258.03,270.95c0.21-0.31,0.35-0.65,0.47-0.99l85.06,14.13c0,0.87,0.26,1.74,0.79,2.51 c1.25,1.79,3.6,2.37,5.51,1.47l140.96,201.98L258.03,270.95z" fill="#00e7ff"/></g></svg>