<?xml version="1.0" encoding="UTF-8"?><svg xmlns="http://www.w3.org/2000/svg" xmlns:xlink="http://www.w3.org/1999/xlink" height="1153.8" preserveAspectRatio="xMidYMid meet" version="1.0" viewBox="-8.7 -8.7 1153.9 1153.8" width="1153.9" zoomAndPan="magnify"><g><g><g><g id="change1_1"><path d="M504.8,1110.1L26.3,631.6c-35-35-35-91.8,0-126.9L504.8,26.3c35-35,91.8-35,126.9,0l478.5,478.5 c35,35,35,91.8,0,126.9l-478.5,478.5C596.6,1145.1,539.8,1145.1,504.8,1110.1z" fill="#f3d237"/></g><g id="change2_1"><path d="M568.2,77.2c3.4,0,6.5,1.3,8.9,3.7l478.5,478.5c2.4,2.4,3.7,5.5,3.7,8.9c0,3.4-1.3,6.5-3.7,8.9l-478.5,478.5 c-2.4,2.4-5.5,3.7-8.9,3.7c-3.4,0-6.5-1.3-8.9-3.7L80.8,577c-2.4-2.4-3.7-5.5-3.7-8.9c0-3.4,1.3-6.5,3.7-8.9L559.3,80.8 C561.7,78.4,564.8,77.2,568.2,77.2L568.2,77.2z M568.2,46.3c-11.6,0-22.5,4.5-30.7,12.7L59,537.5c-8.2,8.2-12.7,19.1-12.7,30.7 c0,11.6,4.5,22.5,12.7,30.7l478.5,478.5c8.2,8.2,19.1,12.7,30.7,12.7c11.6,0,22.5-4.5,30.7-12.7l478.5-478.5 c8.2-8.2,12.7-19.1,12.7-30.7c0-11.6-4.5-22.5-12.7-30.7L598.9,59C590.7,50.8,579.8,46.3,568.2,46.3L568.2,46.3z" fill="#1d1d1b"/></g></g><g id="change2_2"><path d="M690.4,855.8l-95.5-90.4l38.6-38.6c13.2,6.3,29.5,4,40.4-7c8.2-8.2,11.5-19.3,10.1-29.9 c-0.3-2.1-2.8-2.9-4.3-1.4l-17.3,17.3c-0.4,0.4-0.9,0.6-1.4,0.6l-21.9-0.1c-1.1,0-2-0.9-2-2l-0.1-21.9c0-0.5,0.2-1,0.6-1.4 l17.3-17.3c1.5-1.5,0.6-4-1.4-4.3c-10.6-1.4-21.8,1.9-29.9,10.1c-10.9,10.9-13.3,27.2-7,40.4l-39,39l-41.3-39.3l2.6-2.6 c0.5-0.5,0.5-1.3,0-1.8l0,0l-3.6-3.6c-2.2-2.2-3.7-5-4.3-8c0-0.1,0-0.2-0.1-0.3c-0.3-1.5-0.7-3.9,0.1-6.7c0.9-3.4,3.1-5.7,6-8.1 c7.5-6.2,15-9.3,15.9-9.7c1.6-0.6,3.5-1.3,5.6-2c4.5-1.1,9.1-1.8,13.7-2l7.4-0.4l13.6-0.8c0.5,0,1-0.4,1.2-0.9l1.9-4.8 c0.3-0.8-0.1-1.6-0.9-1.9l-5.7-1.9l-5.3-1.8c-12.2-4.1-25.1-5.2-37.8-3.3c-0.4,0.1-0.9,0.1-1.3,0.2c-4.7,0.8-9.3,2-13.8,3.6 c-4.9,1.8-9.6,4-14.1,6.6l-5.8,3.4c-3.5,2-6.8,4.3-10,6.8c-0.8,0.6-1.5,1.2-2.2,1.8c-0.7,0.6-1.4,1.3-2.1,2l-20.8,20.8 c-0.6,0.6-0.7,1.6-0.3,2.3c0,0,0,0,0,0c0,0,0,0.1,0.1,0.1c0,0,0,0.1,0.1,0.1c0,0,0,0.1,0.1,0.1c0.1,0.1,0.1,0.2,0.2,0.3 c0,0,0,0.1,0,0.1c0,0,0,0.1,0.1,0.1c0,0,0,0.1,0.1,0.1c0,0,0,0.1,0,0.1c0,0,0,0,0,0c0,0,0,0,0,0.1c0,0,0,0.1,0,0.1 c0,0,0,0.1,0,0.1c0,0,0,0,0,0c0,0,0,0.1,0,0.1c0,0,0,0,0,0c0,0,0,0,0,0.1c0,0,0,0,0,0c0,0,0,0.1,0,0.1c0,0,0,0,0,0 c0,0,0,0.1,0,0.1c0,0,0,0,0,0c0,0,0,0,0,0c0,0,0,0,0,0.1c0,0.1,0,0.1,0,0.2c0,0,0,0,0,0c0,0.1,0,0.1,0,0.2c0,0,0,0,0,0.1 c0,0,0,0.1,0,0.1c0,0,0,0.1,0,0.1c0,0.1,0,0.1,0,0.2c0,0,0,0,0,0c0,0.1,0,0.1,0,0.2c0.5,3.9-1.5,8.9-5.5,12.9 c-0.6,0.6-1.3,1.2-2,1.8c-0.1,0.1-0.1,0.1-0.2,0.2c0,0-0.1,0.1-0.1,0.1c0,0-0.1,0.1-0.1,0.1c0,0-0.1,0.1-0.1,0.1 c0,0-0.1,0.1-0.1,0.1c0,0,0,0-0.1,0c0,0-0.1,0.1-0.1,0.1c0,0-0.1,0.1-0.1,0.1c-0.1,0-0.1,0.1-0.2,0.1c-0.1,0-0.1,0.1-0.2,0.1 c-0.1,0.1-0.2,0.2-0.4,0.2c-0.1,0-0.1,0.1-0.2,0.1c0,0,0,0,0,0c-0.1,0-0.1,0.1-0.2,0.1c0,0-0.1,0-0.1,0.1c-0.1,0-0.1,0.1-0.2,0.1 c-0.2,0.1-0.4,0.2-0.6,0.3c-0.1,0-0.2,0.1-0.3,0.1c0,0,0,0-0.1,0c-0.1,0-0.1,0.1-0.2,0.1c0,0-0.1,0-0.1,0.1c-0.1,0-0.1,0-0.2,0.1 c0,0-0.1,0-0.1,0c-0.1,0-0.1,0.1-0.2,0.1c0,0-0.1,0-0.1,0c-0.1,0-0.2,0.1-0.2,0.1c-0.1,0-0.2,0.1-0.3,0.1c-0.1,0-0.2,0.1-0.3,0.1 c-0.1,0-0.2,0.1-0.2,0.1c0,0,0,0,0,0c-0.1,0-0.2,0.1-0.2,0.1c0,0,0,0,0,0c-0.1,0-0.1,0-0.2,0.1c0,0-0.1,0-0.1,0c0,0,0,0,0,0 c-0.1,0-0.2,0.1-0.4,0.1c0,0-0.1,0-0.1,0c-0.1,0-0.1,0-0.2,0c0,0-0.1,0-0.1,0c-0.1,0-0.1,0-0.2,0c0,0-0.1,0-0.1,0c0,0-0.1,0-0.1,0 c0,0-0.1,0-0.1,0c0,0,0,0-0.1,0c-0.1,0-0.1,0-0.2,0c-0.1,0-0.2,0-0.3,0.1c-0.1,0-0.1,0-0.2,0c0,0,0,0,0,0c-0.1,0-0.1,0-0.2,0 c0,0,0,0-0.1,0c-0.1,0-0.1,0-0.2,0c0,0-0.1,0-0.1,0c-0.1,0-0.1,0-0.2,0c-0.1,0-0.1,0-0.2,0c-0.1,0-0.3,0-0.4,0c-0.1,0-0.1,0-0.2,0 c0,0,0,0,0,0c-0.1,0-0.1,0-0.2,0c0,0,0,0,0,0c-0.1,0-0.1,0-0.2,0c0,0,0,0,0,0c-0.1,0-0.1,0-0.2,0c-0.1,0-0.1,0-0.2,0c0,0,0,0,0,0 c-0.1,0-0.1,0-0.2,0c-0.1,0-0.1,0-0.2,0c0,0-0.1,0-0.1,0c-0.1,0-0.2,0-0.3,0c0,0-0.1,0-0.1,0c0,0,0,0-0.1,0c-0.1,0-0.1,0-0.2,0 c-0.3-0.1-0.6-0.1-0.9-0.2c0,0,0,0-0.1,0c0,0,0,0,0,0c0,0-0.1,0-0.1,0c-0.2-0.1-0.3-0.1-0.5-0.2c0,0-0.1,0-0.1,0 c-0.1,0-0.1-0.1-0.2-0.1c0,0-0.1,0-0.1,0c-1.1-0.6-2.5-0.4-3.4,0.5L441,730.1c-1.4,1.4-1.4,3.8,0,5.2l32.2,32.2 c1.4,1.4,3.8,1.4,5.2,0l12.1-12.1c1-1,1.2-2.6,0.3-3.7c-0.1-0.1-0.2-0.2-0.2-0.3c0,0-0.1-0.1-0.1-0.1c-0.1-0.1-0.2-0.3-0.3-0.4 c-0.1-0.1-0.2-0.3-0.2-0.4c-0.1-0.2-0.2-0.4-0.3-0.5c0-0.1-0.1-0.1-0.1-0.2c0,0,0-0.1-0.1-0.1c0,0,0-0.1-0.1-0.1 c0,0,0-0.1-0.1-0.1c0,0,0-0.1-0.1-0.1c0,0,0-0.1-0.1-0.1c0,0,0-0.1-0.1-0.1c0,0,0,0,0,0c0-0.1-0.1-0.2-0.1-0.3 c0-0.1,0-0.1-0.1-0.2c0,0,0-0.1,0-0.1c0,0,0-0.1-0.1-0.1c0,0,0-0.1-0.1-0.1c0,0,0-0.1-0.1-0.2c0,0,0-0.1,0-0.1c0-0.1,0-0.1,0-0.2 c0-0.2-0.1-0.3-0.1-0.5c0-0.1,0-0.1,0-0.2c0-0.1,0-0.1,0-0.2c0-0.2-0.1-0.3-0.1-0.5c0-0.1,0-0.1,0-0.2c0-0.1,0-0.2-0.1-0.3 c0-0.1,0-0.1,0-0.2c0-0.1,0-0.1,0-0.2c0-0.3-0.1-0.5-0.1-0.8c0-0.1,0-0.1,0-0.2c0-0.1,0-0.2,0-0.3c0-0.1,0-0.2,0-0.2 c0,0,0-0.1,0-0.1c0,0,0-0.1,0-0.1c0-0.1,0-0.2,0-0.3c0-0.1,0-0.1,0-0.2c0-0.2,0-0.4,0-0.6c0-0.1,0-0.1,0-0.2c0-0.1,0-0.1,0-0.2 c0,0,0-0.1,0-0.1c0,0,0,0,0-0.1c0-0.1,0-0.2,0-0.3c0-0.1,0-0.2,0-0.3c0-0.1,0-0.1,0-0.2c0-0.2,0.1-0.4,0.1-0.7c0-0.1,0-0.1,0-0.2 c0.1-0.3,0.1-0.6,0.2-0.8c0,0,0-0.1,0-0.1c0.1-0.2,0.1-0.5,0.2-0.7c0,0,0-0.1,0-0.1c0.1-0.2,0.1-0.4,0.2-0.6c0,0,0-0.1,0-0.1 c0,0,0-0.1,0-0.1c0,0,0-0.1,0-0.1c0-0.1,0-0.1,0.1-0.2c0,0,0-0.1,0.1-0.1c0,0,0-0.1,0.1-0.1c0,0,0-0.1,0.1-0.1 c0-0.1,0.1-0.2,0.1-0.3c0-0.1,0.1-0.2,0.1-0.3c0,0,0-0.1,0.1-0.1c0.1-0.1,0.1-0.3,0.2-0.4c0,0,0,0,0-0.1c0.1-0.1,0.1-0.2,0.2-0.4 c0,0,0-0.1,0.1-0.1c0,0,0-0.1,0.1-0.1c0-0.1,0.1-0.1,0.1-0.2c0,0,0-0.1,0.1-0.1c0,0,0.1-0.1,0.1-0.1c0.1-0.1,0.1-0.2,0.2-0.2 c0.5-0.7,1.1-1.4,1.7-2c4-4,9.8-5.2,14.9-3.5c0.1,0,0.1,0,0.2,0.1c0,0,0.1,0,0.1,0c0,0,0,0,0,0c0,0,0,0,0,0c0,0,0.1,0,0.1,0.1 c0.1,0,0.1,0,0.2,0.1c0.1,0,0.1,0,0.2,0.1c0.1,0.1,0.3,0.1,0.4,0.2c0.1,0,0.1,0.1,0.2,0.1c0,0,0,0,0,0c0.1,0,0.1,0.1,0.2,0.1 c0.1,0,0.1,0.1,0.2,0.1c0.1,0,0.1,0.1,0.2,0.1c0,0,0,0,0,0c0.1,0,0.1,0.1,0.2,0.1c0.1,0.1,0.3,0.1,0.4,0.2c0.1,0,0.1,0.1,0.2,0.1 c0.1,0,0.1,0.1,0.2,0.1c0,0,0.1,0.1,0.1,0.1c0,0,0,0,0,0c0,0,0.1,0.1,0.1,0.1c0,0,0,0,0,0c0,0,0,0,0.1,0c0.1,0,0.1,0.1,0.2,0.1 c0,0,0.1,0,0.1,0.1c0,0,0,0,0,0c0,0,0,0,0,0c0,0,0.1,0.1,0.1,0.1c0,0,0,0,0,0c0.1,0,0.1,0.1,0.2,0.1c0.1,0,0.1,0.1,0.2,0.1 c0.1,0,0.1,0.1,0.2,0.1c0.1,0.1,0.2,0.2,0.3,0.3c0,0,0.1,0.1,0.1,0.1c0.7,0.6,1.8,0.5,2.5-0.1l2.3-2.3l39.3,41.3L503,823.6 c-13.2-6.3-29.5-4-40.4,7c-8.2,8.2-11.5,19.3-10.1,29.9c0.3,2.1,2.8,2.9,4.3,1.4l17.3-17.3c0.4-0.4,0.9-0.6,1.4-0.6l21.9,0.1 c1.1,0,2,0.9,2,2l0.1,21.9c0,0.5-0.2,1-0.6,1.4l-17.3,17.3c-1.5,1.5-0.6,4,1.4,4.3c10.6,1.4,21.8-1.9,29.9-10.1 c10.9-10.9,13.3-27.2,7-40.4l52.4-52.4l90.4,95.5c7.6,8,20.3,8.2,28.1,0.4C698.6,876.1,698.4,863.4,690.4,855.8z" fill="#1d1d1b"/></g></g><g id="change3_2"><path d="M403.7,369.8V445c0,12.5-3.9,22.4-11.7,29.7c-7.8,7.3-18.5,10.9-32.1,10.9c-13.3,0-23.9-3.5-31.8-10.6 c-7.8-7.1-11.8-16.8-12-29.1v-76.1h23.5v75.4c0,7.5,1.8,12.9,5.4,16.4c3.6,3.4,8.5,5.1,14.9,5.1c13.2,0,20-7,20.2-20.9v-76H403.7z"/><path d="M515.9,484h-23.5l-45.8-75.2V484H423V369.8h23.5l45.9,75.3v-75.3h23.5V484z"/><path d="M536.5,484V369.8h35.2c10,0,19,2.3,27,6.8c7.9,4.5,14.1,11,18.6,19.3s6.7,17.8,6.7,28.4v5.3c0,10.6-2.2,20.1-6.6,28.3 c-4.4,8.3-10.5,14.7-18.5,19.2s-16.9,6.9-26.9,6.9H536.5z M560,388.8v76.3h11.4c9.2,0,16.2-3,21.1-9c4.9-6,7.3-14.6,7.5-25.8v-6 c0-11.6-2.4-20.4-7.2-26.4c-4.8-6-11.8-9-21.1-9H560z"/><path d="M709.6,434.5h-45.2v30.6h53V484h-76.6V369.8h76.4v19.1h-52.9v27.2h45.2V434.5z"/><path d="M773.6,442.2h-18.8V484h-23.5V369.8h42.5c13.5,0,23.9,3,31.2,9c7.3,6,11,14.5,11,25.5c0,7.8-1.7,14.3-5.1,19.5 s-8.5,9.4-15.3,12.4l24.7,46.7v1.1H795L773.6,442.2z M754.8,423.1h19c5.9,0,10.5-1.5,13.7-4.5c3.2-3,4.9-7.2,4.9-12.4 c0-5.4-1.5-9.6-4.6-12.7c-3.1-3.1-7.8-4.6-14.1-4.6h-18.9V423.1z"/></g><g id="change3_1"><path d="M226,581.2c-0.6,8.4-3.7,14.9-9.3,19.7c-5.6,4.8-12.9,7.2-22,7.2c-10,0-17.8-3.4-23.5-10.1c-5.7-6.7-8.6-15.9-8.6-27.6 v-4.8c0-7.5,1.3-14.1,3.9-19.7c2.6-5.7,6.4-10.1,11.3-13.1c4.9-3,10.6-4.6,17.1-4.6c9,0,16.2,2.4,21.7,7.2 c5.5,4.8,8.6,11.5,9.5,20.2h-16c-0.4-5-1.8-8.7-4.2-10.9c-2.4-2.3-6.1-3.4-11-3.4c-5.3,0-9.3,1.9-12,5.7c-2.7,3.8-4,9.8-4.1,17.8 v5.9c0,8.4,1.3,14.5,3.8,18.4c2.5,3.9,6.6,5.8,12,5.8c4.9,0,8.6-1.1,11.1-3.4c2.4-2.3,3.8-5.8,4.2-10.5H226z"/><path d="M300.3,570c0,7.7-1.4,14.4-4.1,20.1s-6.6,10.2-11.6,13.3c-5,3.1-10.8,4.7-17.3,4.7c-6.4,0-12.2-1.5-17.2-4.6 c-5.1-3.1-9-7.5-11.7-13.3c-2.8-5.7-4.2-12.4-4.2-19.8v-3.8c0-7.7,1.4-14.4,4.1-20.2c2.8-5.8,6.7-10.3,11.7-13.4 c5-3.1,10.8-4.7,17.3-4.7c6.5,0,12.2,1.6,17.3,4.7c5,3.1,8.9,7.6,11.7,13.4s4.1,12.5,4.1,20.1V570z M284.1,566.4 c0-8.1-1.5-14.3-4.4-18.6c-2.9-4.2-7.1-6.4-12.5-6.4c-5.4,0-9.5,2.1-12.4,6.3c-2.9,4.2-4.4,10.3-4.4,18.4v3.8 c0,7.9,1.5,14.1,4.4,18.5c2.9,4.4,7.1,6.6,12.6,6.6c5.4,0,9.5-2.1,12.4-6.3c2.9-4.2,4.3-10.4,4.4-18.4V566.4z"/><path d="M375.1,607h-16L328,555.9V607h-16v-77.7h16l31.2,51.2v-51.2h16V607z"/><path d="M429.4,586.7c0-3-1.1-5.3-3.2-7c-2.1-1.6-6-3.3-11.5-5.1s-9.9-3.6-13.2-5.3c-8.8-4.8-13.2-11.2-13.2-19.3 c0-4.2,1.2-7.9,3.5-11.2c2.4-3.3,5.8-5.9,10.2-7.7c4.4-1.9,9.4-2.8,14.9-2.8c5.6,0,10.5,1,14.8,3c4.3,2,7.7,4.8,10.1,8.5 c2.4,3.7,3.6,7.8,3.6,12.5h-16c0-3.6-1.1-6.3-3.4-8.3s-5.4-3-9.4-3c-3.9,0-7,0.8-9.1,2.5c-2.2,1.7-3.3,3.8-3.3,6.5 c0,2.5,1.3,4.6,3.8,6.4c2.5,1.7,6.3,3.3,11.2,4.8c9.1,2.7,15.7,6.1,19.9,10.2s6.2,9.1,6.2,15.2c0,6.7-2.5,12-7.6,15.8 c-5.1,3.8-11.9,5.7-20.5,5.7c-6,0-11.4-1.1-16.3-3.3c-4.9-2.2-8.7-5.2-11.2-9c-2.6-3.8-3.9-8.2-3.9-13.2h16.1 c0,8.6,5.1,12.9,15.4,12.9c3.8,0,6.8-0.8,8.9-2.3C428.4,591.6,429.4,589.4,429.4,586.7z"/><path d="M514.8,542.3H491V607h-16v-64.7h-23.5v-13h63.3V542.3z"/><path d="M552.7,578.6H540V607h-16v-77.7h28.9c9.2,0,16.3,2,21.2,6.1s7.5,9.9,7.5,17.3c0,5.3-1.1,9.7-3.4,13.3 c-2.3,3.5-5.8,6.4-10.4,8.5l16.8,31.8v0.7h-17.2L552.7,578.6z M540,565.6h12.9c4,0,7.1-1,9.3-3.1s3.3-4.9,3.3-8.5 c0-3.7-1-6.5-3.1-8.6c-2.1-2.1-5.3-3.1-9.6-3.1H540V565.6z"/><path d="M652.5,529.3v51.2c0,8.5-2.7,15.2-8,20.2c-5.3,4.9-12.6,7.4-21.8,7.4c-9.1,0-16.3-2.4-21.6-7.2 c-5.3-4.8-8.1-11.4-8.2-19.8v-51.8h16v51.3c0,5.1,1.2,8.8,3.7,11.1c2.4,2.3,5.8,3.5,10.1,3.5c9,0,13.6-4.7,13.7-14.2v-51.7H652.5z"/><path d="M726.7,581.2c-0.6,8.4-3.7,14.9-9.3,19.7c-5.6,4.8-12.9,7.2-22,7.2c-10,0-17.8-3.4-23.5-10.1c-5.7-6.7-8.6-15.9-8.6-27.6 v-4.8c0-7.5,1.3-14.1,3.9-19.7c2.6-5.7,6.4-10.1,11.3-13.1c4.9-3,10.6-4.6,17.1-4.6c9,0,16.2,2.4,21.7,7.2 c5.5,4.8,8.6,11.5,9.5,20.2h-16c-0.4-5-1.8-8.7-4.2-10.9c-2.4-2.3-6.1-3.4-11-3.4c-5.3,0-9.3,1.9-12,5.7c-2.7,3.8-4,9.8-4.1,17.8 v5.9c0,8.4,1.3,14.5,3.8,18.4c2.5,3.9,6.6,5.8,12,5.8c4.9,0,8.6-1.1,11.1-3.4c2.4-2.3,3.8-5.8,4.2-10.5H726.7z"/><path d="M794.1,542.3h-23.8V607h-16v-64.7h-23.5v-13h63.3V542.3z"/><path d="M820.3,607h-16v-77.7h16V607z"/><path d="M898.9,570c0,7.7-1.4,14.4-4.1,20.1s-6.6,10.2-11.6,13.3c-5,3.1-10.8,4.7-17.3,4.7c-6.4,0-12.2-1.5-17.2-4.6 c-5.1-3.1-9-7.5-11.7-13.3s-4.2-12.4-4.2-19.8v-3.8c0-7.7,1.4-14.4,4.1-20.2s6.7-10.3,11.7-13.4c5-3.1,10.8-4.7,17.3-4.7 c6.5,0,12.2,1.6,17.3,4.7c5,3.1,8.9,7.6,11.7,13.4c2.8,5.8,4.1,12.5,4.1,20.1V570z M882.7,566.4c0-8.1-1.5-14.3-4.4-18.6 s-7.1-6.4-12.5-6.4c-5.4,0-9.5,2.1-12.4,6.3c-2.9,4.2-4.4,10.3-4.4,18.4v3.8c0,7.9,1.5,14.1,4.4,18.5c2.9,4.4,7.1,6.6,12.6,6.6 c5.4,0,9.5-2.1,12.4-6.3c2.9-4.2,4.3-10.4,4.4-18.4V566.4z"/><path d="M973.8,607h-16l-31.2-51.1V607h-16v-77.7h16l31.2,51.2v-51.2h16V607z"/></g></g></svg>